<svg width="21" height="15" viewBox="0 0 21 15" fill="none" xmlns="http://www.w3.org/2000/svg">
<path d="M20.5581 2.295C20.4386 1.85103 20.2045 1.44623 19.8794 1.12113C19.5543 0.796018 19.1495 0.562002 18.7056 0.4425C17.0706 1.3411e-07 10.5006 0 10.5006 0C10.5006 0 3.93056 1.3411e-07 2.29556 0.4425C1.85159 0.562002 1.4468 0.796018 1.12169 1.12113C0.796583 1.44623 0.562567 1.85103 0.443064 2.295C0.137773 3.96245 -0.0103759 5.65487 0.000564327 7.35C-0.0103759 9.04513 0.137773 10.7375 0.443064 12.405C0.562567 12.849 0.796583 13.2538 1.12169 13.5789C1.4468 13.904 1.85159 14.138 2.29556 14.2575C3.93056 14.7 10.5006 14.7 10.5006 14.7C10.5006 14.7 17.0706 14.7 18.7056 14.2575C19.1495 14.138 19.5543 13.904 19.8794 13.5789C20.2045 13.2538 20.4386 12.849 20.5581 12.405C20.8634 10.7375 21.0115 9.04513 21.0006 7.35C21.0115 5.65487 20.8634 3.96245 20.5581 2.295ZM8.40056 10.5V4.2L13.8531 7.35L8.40056 10.5Z" fill="white"/>
</svg>
